<svg xmlns="http://www.w3.org/2000/svg" viewBox="0 0 131.52 27.67"><defs><style>.cls-1{fill:#5809fa;}</style></defs><g id="Layer_2" data-name="Layer 2"><g id="Layer_1-2" data-name="Layer 1"><path d="M131.52,18.89v.54a7.39,7.39,0,0,1-7.39,7.38H110.51l3.8-3.79h9.43a3.86,3.86,0,1,0,0-7.72h-5.91a7.39,7.39,0,0,1-7.38-7.38V7.38A7.39,7.39,0,0,1,117.83,0h13.63l-3.8,3.8h-9.44a3.86,3.86,0,1,0,0,7.71h5.91l.68,0A7.43,7.43,0,0,1,131.52,18.89Z"/><path d="M84.48,26.81H80l-6-9.26H69.61v9.26H65.77v-13h7.57a5.93,5.93,0,0,0,2.41-.44l.4-.21.12-.06a4.64,4.64,0,0,0,.64-.48l.12-.11a2.18,2.18,0,0,0,.25-.28,4.35,4.35,0,0,0,.78-1.49,5.3,5.3,0,0,0,.23-1.52,5.72,5.72,0,0,0-.23-1.51,4.82,4.82,0,0,0-.78-1.53A4.06,4.06,0,0,0,75.8,5a2.52,2.52,0,0,0-.29-.12,3.38,3.38,0,0,0-.42-.13,4.17,4.17,0,0,0-.72-.14l-.42,0-.43,0H65.77V.84h7.11a13.08,13.08,0,0,1,3.78.53,8.86,8.86,0,0,1,3,1.58A7.17,7.17,0,0,1,81.6,5.52,8.6,8.6,0,0,1,82.27,9a11.1,11.1,0,0,1-.44,3.06,7.4,7.4,0,0,1-1.49,2.74,7.31,7.31,0,0,1-2.29,1.77Z"/><path d="M60,9.69v7.92a9.19,9.19,0,0,1-1.33,5,9.09,9.09,0,0,1-3.59,3.31,10.77,10.77,0,0,1-5,1.18,10.65,10.65,0,0,1-5-1.18,9.08,9.08,0,0,1-3.56-3.31,9.18,9.18,0,0,1-1.32-5V.87H44V17.54a5.48,5.48,0,0,0,.82,3,6.24,6.24,0,0,0,2.19,2.11,6,6,0,0,0,3.07.79,6.34,6.34,0,0,0,3.17-.79,6.13,6.13,0,0,0,2.18-2.11,5.65,5.65,0,0,0,.8-3V9.69Z"/><polygon points="107.39 26.81 102.64 26.81 102.58 26.74 92.14 15.12 92.14 26.81 88.31 26.81 88.31 1.15 92.14 1.15 92.14 12.14 102.3 1.15 107.05 1.15 107 1.19 95.7 13.62 107.39 26.81"/><polygon points="36.4 0.87 25.06 27.67 24.81 27.67 13.54 0.87 17.86 0.87 20.4 7.29 21.67 10.51 25.13 19.28 28.71 10.51 30.03 7.29 32.65 0.87 36.4 0.87"/><polygon points="12.36 20.54 10.46 26.15 0 0.75 4.21 0.75 4.25 0.83 12.36 20.54"/><rect class="cls-1" x="56.21" y="0.84" width="3.82" height="3.82"/></g></g></svg>