<svg id="Layer_1" data-name="Layer 1" xmlns="http://www.w3.org/2000/svg" viewBox="0 0 136.06 136.06"><defs><style>.cls-1{fill:#fff;}.cls-2{fill:#a7f605;}</style></defs><g id="Layer_2" data-name="Layer 2"><g id="Layer_1-2" data-name="Layer 1-2"><path class="cls-1" d="M133.79,73.09v.54A7.39,7.39,0,0,1,126.4,81H112.78l3.8-3.79H126a3.86,3.86,0,0,0,0-7.72H120.1a7.4,7.4,0,0,1-7.38-7.38v-.54a7.39,7.39,0,0,1,7.38-7.38h13.63l-3.8,3.8h-9.44a3.86,3.86,0,1,0-.39,7.71h7A7.43,7.43,0,0,1,133.79,73.09Z"/><path class="cls-1" d="M86.75,81H82.27l-6-9.26H71.88V81H68V68h7.57A6,6,0,0,0,78,67.57l.4-.21.12-.06a5.09,5.09,0,0,0,.64-.48l.12-.11a2.18,2.18,0,0,0,.25-.28,4.26,4.26,0,0,0,.78-1.49,5.29,5.29,0,0,0,.23-1.52,5.53,5.53,0,0,0-.23-1.51,4.62,4.62,0,0,0-.78-1.53,4,4,0,0,0-1.48-1.18,1.48,1.48,0,0,0-.29-.12,2.25,2.25,0,0,0-.42-.13,3.4,3.4,0,0,0-.72-.14H68V55h7.11a13.08,13.08,0,0,1,3.78.53,8.83,8.83,0,0,1,3,1.58,7,7,0,0,1,1.94,2.57,8.63,8.63,0,0,1,.67,3.48,11,11,0,0,1-.44,3.06A7.26,7.26,0,0,1,82.61,69a7.34,7.34,0,0,1-2.29,1.77Z"/><path class="cls-1" d="M62.27,63.89v7.92a9.18,9.18,0,0,1-1.33,5,9.08,9.08,0,0,1-3.59,3.31,10.85,10.85,0,0,1-5,1.18,10.73,10.73,0,0,1-5-1.18,9,9,0,0,1-4.88-8.31V55.07h3.8V71.74a5.49,5.49,0,0,0,.82,3,6.41,6.41,0,0,0,2.19,2.11,6.14,6.14,0,0,0,3.07.79,6.48,6.48,0,0,0,3.17-.79,6.2,6.2,0,0,0,2.18-2.11,5.68,5.68,0,0,0,.8-3V63.89Z"/><polygon class="cls-1" points="109.66 81.01 104.91 81.01 104.85 80.94 94.41 69.32 94.41 81.01 90.58 81.01 90.58 55.35 94.41 55.35 94.41 66.34 104.57 55.35 109.32 55.35 109.27 55.39 97.97 67.82 109.66 81.01"/><polygon class="cls-1" points="38.67 55.07 27.33 81.87 27.08 81.87 15.81 55.07 20.13 55.07 22.67 61.49 23.94 64.71 27.4 73.48 30.98 64.71 32.3 61.49 34.92 55.07 38.67 55.07"/><polygon class="cls-1" points="14.63 74.74 12.73 80.35 2.27 54.95 6.48 54.95 6.52 55.03 14.63 74.74"/><rect class="cls-2" x="58.48" y="55.04" width="3.82" height="3.82"/></g></g></svg>